<svg width="450" height="450" xmlns="http://www.w3.org/2000/svg" xmlns:xlink="http://www.w3.org/1999/xlink" overflow="hidden"><defs><clipPath id="clip0"><path d="M735 150 1185 150 1185 600 735 600Z" fill-rule="evenodd" clip-rule="evenodd"/></clipPath></defs><g clip-path="url(#clip0)" transform="translate(-735 -150)"><path d="M448 320 336 320C327.163 320 320 327.163 320 336L320 448 24.0001 448C10.7784 448.033 0.0332808 437.342 0.000104987 424.12L0.000104987 24.0001C-0.0330709 10.7784 10.6583 0.0332808 23.88 0.000104987L424 0.000104987C437.222-0.0330709 447.967 10.6583 448 23.8799L448 320Z" fill="#E8F0F6" fill-rule="evenodd" transform="matrix(1 -0 -0 -1 736 599)"/><path d="M0 128 0 16C0 7.16304 7.16304 0 16 0L128 0 128 6.10005C128 12.4389 125.482 18.518 121 23L23 121C18.487 125.497 12.371 128.016 6 128Z" fill="#425C6A" fill-rule="evenodd" transform="matrix(1 -0 -0 -1 1056 279)"/><path d="M1030.6 446 889.396 446C884.336 446 880.447 450.317 881.065 455.25 885.693 491.757 917.416 520 955.803 520L964.197 520C1002.58 520 1034.31 491.757 1038.94 455.25 1039.55 450.317 1035.66 446 1030.6 446Z" fill="#425C6A" fill-rule="evenodd"/><path d="M818 392C818 377.641 829.641 366 844 366 858.359 366 870 377.641 870 392 870 406.359 858.359 418 844 418 829.641 418 818 406.359 818 392Z" fill="#425C6A" fill-rule="evenodd"/><path d="M1050 392C1050 377.641 1061.64 366 1076 366 1090.36 366 1102 377.641 1102 392 1102 406.359 1090.36 418 1076 418 1061.64 418 1050 406.359 1050 392Z" fill="#425C6A" fill-rule="evenodd"/></g></svg>