<svg width="486" height="478" xmlns="http://www.w3.org/2000/svg" xmlns:xlink="http://www.w3.org/1999/xlink" overflow="hidden"><defs><clipPath id="clip0"><path d="M397 166 883 166 883 644 397 644Z" fill-rule="evenodd" clip-rule="evenodd"/></clipPath></defs><g clip-path="url(#clip0)" transform="translate(-397 -166)"><path d="M232 165.714 174 165.714C169.424 165.714 165.714 169.424 165.714 174L165.714 232 12.4286 232C5.58166 232.017 0.0172347 226.481 5.43682e-05 219.634L5.43682e-05 12.4286C-0.017126 5.58166 5.51946 0.0172347 12.3664 5.43682e-05L219.571 5.43682e-05C226.419-0.017126 231.983 5.51946 232 12.3664L232 165.714Z" fill="#E8F0F6" fill-rule="evenodd" transform="matrix(1 -0 -0 -1 524 399)"/><path d="M0 66 0 8.25C0 3.69344 3.69344 0 8.25 0L66 0 66 3.14534C66 6.41383 64.7017 9.54835 62.3906 11.8594L11.8594 62.3906C9.53238 64.7094 6.37881 66.0082 3.09375 66Z" fill="#425C6A" fill-rule="evenodd" transform="matrix(1 -0 -0 -1 690 233)"/><path d="M676.642 319 603.358 319C600.731 319 598.713 321.275 599.034 323.875 601.436 343.115 617.899 358 637.822 358L642.178 358C662.101 358 678.564 343.115 680.967 323.875 681.287 321.275 679.269 319 676.642 319Z" fill="#425C6A" fill-rule="evenodd"/><path d="M566 291.5C566 284.044 572.044 278 579.5 278 586.956 278 593 284.044 593 291.5 593 298.956 586.956 305 579.5 305 572.044 305 566 298.956 566 291.5Z" fill="#425C6A" fill-rule="evenodd"/><path d="M687 291.5C687 284.044 693.044 278 700.5 278 707.956 278 714 284.044 714 291.5 714 298.956 707.956 305 700.5 305 693.044 305 687 298.956 687 291.5Z" fill="#425C6A" fill-rule="evenodd"/><text fill="#425C6A" font-family="Livvic,Livvic_MSFontService,sans-serif" font-weight="700" font-size="133" transform="translate(477.667 531)">Sona</text></g></svg>